<mxfile host="app.diagrams.net" modified="2024-03-09T20:10:02.502Z" agent="Mozilla/5.0 (Windows NT 10.0; Win64; x64) AppleWebKit/537.36 (KHTML, like Gecko) Chrome/121.0.0.0 Safari/537.36 OPR/107.0.0.0" etag="RcDn7qZgEoQQPe8GGZgY" version="24.0.4" type="google">
  <diagram id="R2lEEEUBdFMjLlhIrx00" name="Page-1">
    <mxGraphModel grid="1" page="1" gridSize="10" guides="1" tooltips="1" connect="1" arrows="1" fold="1" pageScale="1" pageWidth="850" pageHeight="1100" math="0" shadow="0" extFonts="Permanent Marker^https://fonts.googleapis.com/css?family=Permanent+Marker">
      <root>
        <mxCell id="0" />
        <mxCell id="1" parent="0" />
        <mxCell id="-3FtxYAkCxHqLQQWI_r9-27" style="rounded=0;orthogonalLoop=1;jettySize=auto;html=1;exitX=0.75;exitY=0;exitDx=0;exitDy=0;endArrow=none;endFill=0;" edge="1" parent="1" source="-3FtxYAkCxHqLQQWI_r9-1" target="-3FtxYAkCxHqLQQWI_r9-23">
          <mxGeometry relative="1" as="geometry" />
        </mxCell>
        <mxCell id="-3FtxYAkCxHqLQQWI_r9-28" style="rounded=0;orthogonalLoop=1;jettySize=auto;html=1;exitX=0.5;exitY=0;exitDx=0;exitDy=0;strokeColor=default;align=center;verticalAlign=middle;fontFamily=Helvetica;fontSize=11;fontColor=default;labelBackgroundColor=default;endArrow=none;endFill=0;" edge="1" parent="1" source="-3FtxYAkCxHqLQQWI_r9-1" target="-3FtxYAkCxHqLQQWI_r9-18">
          <mxGeometry relative="1" as="geometry" />
        </mxCell>
        <mxCell id="-3FtxYAkCxHqLQQWI_r9-29" style="rounded=0;orthogonalLoop=1;jettySize=auto;html=1;exitX=0.25;exitY=0;exitDx=0;exitDy=0;endArrow=none;endFill=0;" edge="1" parent="1" source="-3FtxYAkCxHqLQQWI_r9-1" target="-3FtxYAkCxHqLQQWI_r9-17">
          <mxGeometry relative="1" as="geometry" />
        </mxCell>
        <mxCell id="-3FtxYAkCxHqLQQWI_r9-30" style="rounded=0;orthogonalLoop=1;jettySize=auto;html=1;exitX=0;exitY=0;exitDx=0;exitDy=0;endArrow=none;endFill=0;" edge="1" parent="1" source="-3FtxYAkCxHqLQQWI_r9-1" target="-3FtxYAkCxHqLQQWI_r9-16">
          <mxGeometry relative="1" as="geometry" />
        </mxCell>
        <mxCell id="-3FtxYAkCxHqLQQWI_r9-31" style="rounded=0;orthogonalLoop=1;jettySize=auto;html=1;entryX=1;entryY=0.5;entryDx=0;entryDy=0;exitX=0;exitY=0;exitDx=0;exitDy=0;endArrow=none;endFill=0;" edge="1" parent="1" source="-3FtxYAkCxHqLQQWI_r9-1" target="-3FtxYAkCxHqLQQWI_r9-25">
          <mxGeometry relative="1" as="geometry" />
        </mxCell>
        <mxCell id="-3FtxYAkCxHqLQQWI_r9-32" style="rounded=0;orthogonalLoop=1;jettySize=auto;html=1;entryX=1;entryY=0.5;entryDx=0;entryDy=0;endArrow=none;endFill=0;" edge="1" parent="1" source="-3FtxYAkCxHqLQQWI_r9-1" target="-3FtxYAkCxHqLQQWI_r9-14">
          <mxGeometry relative="1" as="geometry" />
        </mxCell>
        <mxCell id="-3FtxYAkCxHqLQQWI_r9-33" style="rounded=0;orthogonalLoop=1;jettySize=auto;html=1;entryX=1;entryY=0.5;entryDx=0;entryDy=0;endArrow=none;endFill=0;" edge="1" parent="1" source="-3FtxYAkCxHqLQQWI_r9-1" target="-3FtxYAkCxHqLQQWI_r9-21">
          <mxGeometry relative="1" as="geometry" />
        </mxCell>
        <mxCell id="-3FtxYAkCxHqLQQWI_r9-34" style="rounded=0;orthogonalLoop=1;jettySize=auto;html=1;entryX=1;entryY=0.5;entryDx=0;entryDy=0;endArrow=none;endFill=0;" edge="1" parent="1" source="-3FtxYAkCxHqLQQWI_r9-1" target="-3FtxYAkCxHqLQQWI_r9-15">
          <mxGeometry relative="1" as="geometry" />
        </mxCell>
        <mxCell id="-3FtxYAkCxHqLQQWI_r9-35" style="rounded=0;orthogonalLoop=1;jettySize=auto;html=1;entryX=1;entryY=0.5;entryDx=0;entryDy=0;endArrow=none;endFill=0;" edge="1" parent="1" source="-3FtxYAkCxHqLQQWI_r9-1" target="-3FtxYAkCxHqLQQWI_r9-24">
          <mxGeometry relative="1" as="geometry" />
        </mxCell>
        <mxCell id="-3FtxYAkCxHqLQQWI_r9-36" style="rounded=0;orthogonalLoop=1;jettySize=auto;html=1;endArrow=none;endFill=0;" edge="1" parent="1" source="-3FtxYAkCxHqLQQWI_r9-1" target="-3FtxYAkCxHqLQQWI_r9-19">
          <mxGeometry relative="1" as="geometry" />
        </mxCell>
        <mxCell id="-3FtxYAkCxHqLQQWI_r9-39" style="rounded=0;orthogonalLoop=1;jettySize=auto;html=1;endArrow=none;endFill=0;" edge="1" parent="1" source="-3FtxYAkCxHqLQQWI_r9-1" target="-3FtxYAkCxHqLQQWI_r9-22">
          <mxGeometry relative="1" as="geometry" />
        </mxCell>
        <mxCell id="4-cG7A_X4roFUdsw9wop-22" value="1" style="edgeStyle=orthogonalEdgeStyle;rounded=0;orthogonalLoop=1;jettySize=auto;html=1;endArrow=none;endFill=0;fontStyle=1;fontSize=16;" edge="1" parent="1" source="-3FtxYAkCxHqLQQWI_r9-1" target="-3FtxYAkCxHqLQQWI_r9-7">
          <mxGeometry x="-0.6667" y="20" relative="1" as="geometry">
            <mxPoint as="offset" />
          </mxGeometry>
        </mxCell>
        <mxCell id="-3FtxYAkCxHqLQQWI_r9-1" value="&lt;font style=&quot;font-size: 18px;&quot;&gt;Games&lt;/font&gt;" style="rounded=0;whiteSpace=wrap;html=1;" vertex="1" parent="1">
          <mxGeometry x="90" y="210" width="120" height="60" as="geometry" />
        </mxCell>
        <mxCell id="-3FtxYAkCxHqLQQWI_r9-13" value="N" style="edgeStyle=orthogonalEdgeStyle;rounded=0;orthogonalLoop=1;jettySize=auto;html=1;entryX=0.5;entryY=0;entryDx=0;entryDy=0;endArrow=none;endFill=0;fontSize=15;fontStyle=1" edge="1" parent="1" source="-3FtxYAkCxHqLQQWI_r9-3" target="-3FtxYAkCxHqLQQWI_r9-11">
          <mxGeometry x="-0.3333" y="-20" relative="1" as="geometry">
            <mxPoint as="offset" />
          </mxGeometry>
        </mxCell>
        <mxCell id="4-cG7A_X4roFUdsw9wop-9" style="rounded=0;orthogonalLoop=1;jettySize=auto;html=1;endArrow=none;endFill=0;" edge="1" parent="1" source="-3FtxYAkCxHqLQQWI_r9-3" target="4-cG7A_X4roFUdsw9wop-5">
          <mxGeometry relative="1" as="geometry" />
        </mxCell>
        <mxCell id="4-cG7A_X4roFUdsw9wop-10" style="rounded=0;orthogonalLoop=1;jettySize=auto;html=1;endArrow=none;endFill=0;" edge="1" parent="1" source="-3FtxYAkCxHqLQQWI_r9-3" target="4-cG7A_X4roFUdsw9wop-6">
          <mxGeometry relative="1" as="geometry" />
        </mxCell>
        <mxCell id="4-cG7A_X4roFUdsw9wop-11" style="rounded=0;orthogonalLoop=1;jettySize=auto;html=1;endArrow=none;endFill=0;" edge="1" parent="1" source="-3FtxYAkCxHqLQQWI_r9-3" target="4-cG7A_X4roFUdsw9wop-4">
          <mxGeometry relative="1" as="geometry" />
        </mxCell>
        <mxCell id="4-cG7A_X4roFUdsw9wop-12" style="rounded=0;orthogonalLoop=1;jettySize=auto;html=1;entryX=0;entryY=0.5;entryDx=0;entryDy=0;endArrow=none;endFill=0;" edge="1" parent="1" source="-3FtxYAkCxHqLQQWI_r9-3" target="4-cG7A_X4roFUdsw9wop-1">
          <mxGeometry relative="1" as="geometry" />
        </mxCell>
        <mxCell id="4-cG7A_X4roFUdsw9wop-13" style="rounded=0;orthogonalLoop=1;jettySize=auto;html=1;entryX=0;entryY=0.5;entryDx=0;entryDy=0;endArrow=none;endFill=0;" edge="1" parent="1" source="-3FtxYAkCxHqLQQWI_r9-3" target="4-cG7A_X4roFUdsw9wop-2">
          <mxGeometry relative="1" as="geometry" />
        </mxCell>
        <mxCell id="4-cG7A_X4roFUdsw9wop-14" style="rounded=0;orthogonalLoop=1;jettySize=auto;html=1;endArrow=none;endFill=0;" edge="1" parent="1" source="-3FtxYAkCxHqLQQWI_r9-3" target="4-cG7A_X4roFUdsw9wop-7">
          <mxGeometry relative="1" as="geometry" />
        </mxCell>
        <mxCell id="4-cG7A_X4roFUdsw9wop-15" style="rounded=0;orthogonalLoop=1;jettySize=auto;html=1;entryX=0;entryY=0.5;entryDx=0;entryDy=0;endArrow=none;endFill=0;" edge="1" parent="1" source="-3FtxYAkCxHqLQQWI_r9-3" target="4-cG7A_X4roFUdsw9wop-8">
          <mxGeometry relative="1" as="geometry" />
        </mxCell>
        <mxCell id="-3FtxYAkCxHqLQQWI_r9-3" value="&lt;font style=&quot;font-size: 18px;&quot;&gt;Recommendations&lt;/font&gt;" style="rounded=0;whiteSpace=wrap;html=1;" vertex="1" parent="1">
          <mxGeometry x="520" y="205" width="160" height="70" as="geometry" />
        </mxCell>
        <mxCell id="4-cG7A_X4roFUdsw9wop-19" style="rounded=0;orthogonalLoop=1;jettySize=auto;html=1;endArrow=none;endFill=0;" edge="1" parent="1" source="-3FtxYAkCxHqLQQWI_r9-4" target="4-cG7A_X4roFUdsw9wop-16">
          <mxGeometry relative="1" as="geometry" />
        </mxCell>
        <mxCell id="4-cG7A_X4roFUdsw9wop-20" style="rounded=0;orthogonalLoop=1;jettySize=auto;html=1;endArrow=none;endFill=0;" edge="1" parent="1" source="-3FtxYAkCxHqLQQWI_r9-4" target="4-cG7A_X4roFUdsw9wop-17">
          <mxGeometry relative="1" as="geometry" />
        </mxCell>
        <mxCell id="4-cG7A_X4roFUdsw9wop-21" style="rounded=0;orthogonalLoop=1;jettySize=auto;html=1;endArrow=none;endFill=0;" edge="1" parent="1" source="-3FtxYAkCxHqLQQWI_r9-4" target="4-cG7A_X4roFUdsw9wop-18">
          <mxGeometry relative="1" as="geometry" />
        </mxCell>
        <mxCell id="-3FtxYAkCxHqLQQWI_r9-4" value="&lt;font style=&quot;font-size: 18px;&quot;&gt;Users&lt;/font&gt;" style="rounded=0;whiteSpace=wrap;html=1;" vertex="1" parent="1">
          <mxGeometry x="540" y="460" width="120" height="60" as="geometry" />
        </mxCell>
        <mxCell id="-3FtxYAkCxHqLQQWI_r9-9" value="N" style="edgeStyle=orthogonalEdgeStyle;rounded=0;orthogonalLoop=1;jettySize=auto;html=1;entryX=0;entryY=0.5;entryDx=0;entryDy=0;endArrow=none;endFill=0;fontSize=15;fontStyle=1" edge="1" parent="1" source="-3FtxYAkCxHqLQQWI_r9-7" target="-3FtxYAkCxHqLQQWI_r9-3">
          <mxGeometry x="0.6364" y="20" relative="1" as="geometry">
            <mxPoint as="offset" />
          </mxGeometry>
        </mxCell>
        <mxCell id="-3FtxYAkCxHqLQQWI_r9-7" value="&lt;font style=&quot;font-size: 15px;&quot;&gt;Possuem&lt;/font&gt;" style="rhombus;whiteSpace=wrap;html=1;" vertex="1" parent="1">
          <mxGeometry x="330" y="200" width="80" height="80" as="geometry" />
        </mxCell>
        <mxCell id="-3FtxYAkCxHqLQQWI_r9-12" value="1" style="edgeStyle=orthogonalEdgeStyle;rounded=0;orthogonalLoop=1;jettySize=auto;html=1;entryX=0.5;entryY=0;entryDx=0;entryDy=0;endArrow=none;endFill=0;fontSize=15;fontStyle=1" edge="1" parent="1" source="-3FtxYAkCxHqLQQWI_r9-11" target="-3FtxYAkCxHqLQQWI_r9-4">
          <mxGeometry x="0.6667" y="-30" relative="1" as="geometry">
            <mxPoint as="offset" />
          </mxGeometry>
        </mxCell>
        <mxCell id="-3FtxYAkCxHqLQQWI_r9-11" value="&lt;font style=&quot;font-size: 15px;&quot;&gt;Fazem&lt;/font&gt;" style="rhombus;whiteSpace=wrap;html=1;" vertex="1" parent="1">
          <mxGeometry x="560" y="320" width="80" height="80" as="geometry" />
        </mxCell>
        <mxCell id="-3FtxYAkCxHqLQQWI_r9-14" value="&lt;font style=&quot;font-size: 15px;&quot;&gt;linux&lt;/font&gt;" style="ellipse;whiteSpace=wrap;html=1;" vertex="1" parent="1">
          <mxGeometry x="-190" y="150" width="120" height="80" as="geometry" />
        </mxCell>
        <mxCell id="-3FtxYAkCxHqLQQWI_r9-15" value="&lt;font style=&quot;font-size: 15px;&quot;&gt;positive_ratio&lt;/font&gt;" style="ellipse;whiteSpace=wrap;html=1;" vertex="1" parent="1">
          <mxGeometry x="-150" y="310" width="120" height="80" as="geometry" />
        </mxCell>
        <mxCell id="-3FtxYAkCxHqLQQWI_r9-16" value="&lt;font style=&quot;font-size: 15px;&quot;&gt;win&lt;/font&gt;" style="ellipse;whiteSpace=wrap;html=1;" vertex="1" parent="1">
          <mxGeometry x="-110" width="120" height="80" as="geometry" />
        </mxCell>
        <mxCell id="-3FtxYAkCxHqLQQWI_r9-17" value="&lt;font style=&quot;font-size: 15px;&quot;&gt;date_release&lt;/font&gt;" style="ellipse;whiteSpace=wrap;html=1;" vertex="1" parent="1">
          <mxGeometry x="-10" y="-50" width="120" height="80" as="geometry" />
        </mxCell>
        <mxCell id="-3FtxYAkCxHqLQQWI_r9-18" value="&lt;font style=&quot;font-size: 15px;&quot;&gt;title&lt;/font&gt;" style="ellipse;whiteSpace=wrap;html=1;" vertex="1" parent="1">
          <mxGeometry x="110" y="-60" width="120" height="80" as="geometry" />
        </mxCell>
        <mxCell id="-3FtxYAkCxHqLQQWI_r9-19" value="&lt;font style=&quot;font-size: 15px;&quot;&gt;price_original&lt;/font&gt;" style="ellipse;whiteSpace=wrap;html=1;" vertex="1" parent="1">
          <mxGeometry x="-10" y="450" width="120" height="80" as="geometry" />
        </mxCell>
        <mxCell id="-3FtxYAkCxHqLQQWI_r9-21" value="&lt;font style=&quot;font-size: 15px;&quot;&gt;rating&lt;/font&gt;" style="ellipse;whiteSpace=wrap;html=1;" vertex="1" parent="1">
          <mxGeometry x="-170" y="230" width="120" height="80" as="geometry" />
        </mxCell>
        <mxCell id="-3FtxYAkCxHqLQQWI_r9-22" value="&lt;font style=&quot;font-size: 15px;&quot;&gt;steam_deck&lt;/font&gt;" style="ellipse;whiteSpace=wrap;html=1;" vertex="1" parent="1">
          <mxGeometry x="110" y="470" width="120" height="80" as="geometry" />
        </mxCell>
        <mxCell id="-3FtxYAkCxHqLQQWI_r9-23" value="&lt;font style=&quot;font-size: 15px;&quot;&gt;app_id&lt;/font&gt;" style="ellipse;whiteSpace=wrap;html=1;fontStyle=5;" vertex="1" parent="1">
          <mxGeometry x="230" y="-50" width="120" height="80" as="geometry" />
        </mxCell>
        <mxCell id="-3FtxYAkCxHqLQQWI_r9-24" value="&lt;font style=&quot;font-size: 15px;&quot;&gt;user_reviews&lt;/font&gt;" style="ellipse;whiteSpace=wrap;html=1;" vertex="1" parent="1">
          <mxGeometry x="-100" y="380" width="120" height="80" as="geometry" />
        </mxCell>
        <mxCell id="-3FtxYAkCxHqLQQWI_r9-25" value="&lt;font style=&quot;font-size: 15px;&quot;&gt;mac&lt;/font&gt;" style="ellipse;whiteSpace=wrap;html=1;" vertex="1" parent="1">
          <mxGeometry x="-170" y="70" width="120" height="80" as="geometry" />
        </mxCell>
        <mxCell id="4-cG7A_X4roFUdsw9wop-1" value="&lt;font style=&quot;font-size: 15px;&quot;&gt;date&lt;/font&gt;" style="ellipse;whiteSpace=wrap;html=1;" vertex="1" parent="1">
          <mxGeometry x="780" y="60" width="120" height="80" as="geometry" />
        </mxCell>
        <mxCell id="4-cG7A_X4roFUdsw9wop-2" value="&lt;font style=&quot;font-size: 15px;&quot;&gt;is_recommended&lt;/font&gt;" style="ellipse;whiteSpace=wrap;html=1;" vertex="1" parent="1">
          <mxGeometry x="800" y="150" width="120" height="80" as="geometry" />
        </mxCell>
        <mxCell id="4-cG7A_X4roFUdsw9wop-4" value="&lt;font style=&quot;font-size: 15px;&quot;&gt;funny&lt;/font&gt;" style="ellipse;whiteSpace=wrap;html=1;" vertex="1" parent="1">
          <mxGeometry x="690" y="-10" width="120" height="80" as="geometry" />
        </mxCell>
        <mxCell id="4-cG7A_X4roFUdsw9wop-5" value="&lt;u&gt;&lt;b&gt;&lt;font style=&quot;font-size: 15px;&quot;&gt;app_id&lt;/font&gt;&lt;/b&gt;&lt;/u&gt;" style="ellipse;whiteSpace=wrap;html=1;dashed=1;" vertex="1" parent="1">
          <mxGeometry x="820" y="240" width="120" height="80" as="geometry" />
        </mxCell>
        <mxCell id="4-cG7A_X4roFUdsw9wop-6" value="&lt;font style=&quot;font-size: 15px;&quot;&gt;helpful&lt;/font&gt;" style="ellipse;whiteSpace=wrap;html=1;" vertex="1" parent="1">
          <mxGeometry x="580" y="-50" width="120" height="80" as="geometry" />
        </mxCell>
        <mxCell id="4-cG7A_X4roFUdsw9wop-7" value="&lt;font style=&quot;font-size: 15px;&quot;&gt;hours&lt;/font&gt;" style="ellipse;whiteSpace=wrap;html=1;" vertex="1" parent="1">
          <mxGeometry x="450" y="-50" width="120" height="80" as="geometry" />
        </mxCell>
        <mxCell id="4-cG7A_X4roFUdsw9wop-8" value="&lt;u&gt;&lt;b&gt;&lt;font style=&quot;font-size: 15px;&quot;&gt;user_id&lt;/font&gt;&lt;/b&gt;&lt;/u&gt;" style="ellipse;whiteSpace=wrap;html=1;gradientColor=none;dashed=1;" vertex="1" parent="1">
          <mxGeometry x="810" y="330" width="120" height="80" as="geometry" />
        </mxCell>
        <mxCell id="4-cG7A_X4roFUdsw9wop-16" value="&lt;u&gt;&lt;b&gt;&lt;font style=&quot;font-size: 15px;&quot;&gt;user_id&lt;/font&gt;&lt;/b&gt;&lt;/u&gt;" style="ellipse;whiteSpace=wrap;html=1;" vertex="1" parent="1">
          <mxGeometry x="410" y="670" width="120" height="80" as="geometry" />
        </mxCell>
        <mxCell id="4-cG7A_X4roFUdsw9wop-17" value="&lt;font style=&quot;font-size: 15px;&quot;&gt;products&lt;/font&gt;" style="ellipse;whiteSpace=wrap;html=1;" vertex="1" parent="1">
          <mxGeometry x="560" y="680" width="120" height="80" as="geometry" />
        </mxCell>
        <mxCell id="4-cG7A_X4roFUdsw9wop-18" value="&lt;font style=&quot;font-size: 15px;&quot;&gt;reviews&lt;/font&gt;" style="ellipse;whiteSpace=wrap;html=1;" vertex="1" parent="1">
          <mxGeometry x="710" y="670" width="120" height="80" as="geometry" />
        </mxCell>
      </root>
    </mxGraphModel>
  </diagram>
</mxfile>
